<mxfile host="app.diagrams.net" modified="2023-11-05T19:41:41.685Z" agent="Mozilla/5.0 (Windows NT 10.0; Win64; x64) AppleWebKit/537.36 (KHTML, like Gecko) Chrome/119.0.0.0 Safari/537.36 Edg/119.0.0.0" etag="Qh58KIgOadGkiZ2MIHXr" version="22.0.8" type="google">
  <diagram name="Page-1" id="XNWSjWfJ_tBXsP87LfPl">
    <mxGraphModel dx="1370" dy="748" grid="1" gridSize="10" guides="1" tooltips="1" connect="1" arrows="1" fold="1" page="1" pageScale="1" pageWidth="850" pageHeight="1100" math="0" shadow="0">
      <root>
        <mxCell id="0" />
        <mxCell id="1" parent="0" />
        <mxCell id="s9fAK88f5WVtOWiXOBPL-1" value="" style="ellipse;whiteSpace=wrap;html=1;aspect=fixed;" vertex="1" parent="1">
          <mxGeometry x="160" y="249.5" width="480" height="480" as="geometry" />
        </mxCell>
        <mxCell id="s9fAK88f5WVtOWiXOBPL-54" value="&lt;font style=&quot;font-size: 14px;&quot;&gt;F&lt;/font&gt;&lt;font size=&quot;1&quot; style=&quot;&quot;&gt;&lt;sub&gt;DDCU&lt;/sub&gt;&lt;/font&gt;" style="ellipse;whiteSpace=wrap;html=1;aspect=fixed;fillColor=#A9C4EB;" vertex="1" parent="1">
          <mxGeometry x="425" y="495" width="80" height="80" as="geometry" />
        </mxCell>
        <mxCell id="s9fAK88f5WVtOWiXOBPL-55" value="&lt;font style=&quot;font-size: 14px;&quot;&gt;Aging&lt;/font&gt;" style="ellipse;whiteSpace=wrap;html=1;aspect=fixed;fillColor=#FFFFFF;strokeColor=#F19C99;strokeWidth=2;dashed=1;dashPattern=8 8;" vertex="1" parent="1">
          <mxGeometry x="230" y="370" width="50" height="50" as="geometry" />
        </mxCell>
        <mxCell id="s9fAK88f5WVtOWiXOBPL-56" value="&lt;font style=&quot;font-size: 14px;&quot;&gt;Overheating&lt;/font&gt;" style="ellipse;whiteSpace=wrap;html=1;aspect=fixed;fillColor=#FFFFFF;strokeColor=#F19C99;strokeWidth=2;dashed=1;dashPattern=8 8;" vertex="1" parent="1">
          <mxGeometry x="305" y="320" width="50" height="50" as="geometry" />
        </mxCell>
        <mxCell id="s9fAK88f5WVtOWiXOBPL-57" value="&lt;font style=&quot;font-size: 14px;&quot;&gt;H&lt;/font&gt;&lt;font size=&quot;1&quot; style=&quot;&quot;&gt;&lt;sub&gt;DDCU&lt;/sub&gt;&lt;/font&gt;" style="ellipse;whiteSpace=wrap;html=1;aspect=fixed;fillColor=#CCCCCC;" vertex="1" parent="1">
          <mxGeometry x="305" y="399" width="80" height="80" as="geometry" />
        </mxCell>
        <mxCell id="s9fAK88f5WVtOWiXOBPL-58" value="" style="shape=flexArrow;endArrow=classic;html=1;rounded=0;width=0.3225806451612903;endSize=1.064804469273743;endWidth=2.980717246350694;strokeColor=#F19C99;" edge="1" parent="1" source="s9fAK88f5WVtOWiXOBPL-56" target="s9fAK88f5WVtOWiXOBPL-57">
          <mxGeometry width="50" height="50" relative="1" as="geometry">
            <mxPoint x="825.0033022044959" y="428.6409081756615" as="sourcePoint" />
            <mxPoint x="871" y="422" as="targetPoint" />
          </mxGeometry>
        </mxCell>
        <mxCell id="s9fAK88f5WVtOWiXOBPL-59" value="" style="shape=flexArrow;endArrow=classic;html=1;rounded=0;width=0.3225806451612903;endSize=1.064804469273743;endWidth=2.980717246350694;strokeColor=#F19C99;" edge="1" parent="1" source="s9fAK88f5WVtOWiXOBPL-55" target="s9fAK88f5WVtOWiXOBPL-57">
          <mxGeometry width="50" height="50" relative="1" as="geometry">
            <mxPoint x="314" y="359" as="sourcePoint" />
            <mxPoint x="320" y="399" as="targetPoint" />
          </mxGeometry>
        </mxCell>
        <mxCell id="s9fAK88f5WVtOWiXOBPL-60" value="&lt;font style=&quot;font-size: 14px;&quot;&gt;Shortcircut&lt;/font&gt;" style="ellipse;whiteSpace=wrap;html=1;aspect=fixed;fillColor=#FFFFFF;strokeColor=#F19C99;strokeWidth=2;dashed=1;dashPattern=8 8;" vertex="1" parent="1">
          <mxGeometry x="400" y="340" width="50" height="50" as="geometry" />
        </mxCell>
        <mxCell id="s9fAK88f5WVtOWiXOBPL-61" value="" style="shape=flexArrow;endArrow=classic;html=1;rounded=0;width=0.3225806451612903;endSize=1.064804469273743;endWidth=2.980717246350694;strokeColor=#F19C99;" edge="1" parent="1" source="s9fAK88f5WVtOWiXOBPL-60" target="s9fAK88f5WVtOWiXOBPL-57">
          <mxGeometry width="50" height="50" relative="1" as="geometry">
            <mxPoint x="957" y="343" as="sourcePoint" />
            <mxPoint x="932" y="383" as="targetPoint" />
          </mxGeometry>
        </mxCell>
        <mxCell id="s9fAK88f5WVtOWiXOBPL-62" value="&lt;font style=&quot;font-size: 10px;&quot;&gt;Agent Intervention&lt;/font&gt;" style="ellipse;whiteSpace=wrap;html=1;aspect=fixed;fillColor=#FFFFFF;strokeColor=#F19C99;strokeWidth=2;dashed=1;dashPattern=8 8;direction=north;" vertex="1" parent="1">
          <mxGeometry x="230" y="450" width="50" height="50" as="geometry" />
        </mxCell>
        <mxCell id="s9fAK88f5WVtOWiXOBPL-63" value="" style="shape=flexArrow;endArrow=classic;html=1;rounded=0;width=0.3225806451612903;endSize=1.064804469273743;endWidth=2.980717246350694;strokeColor=#F19C99;" edge="1" parent="1" source="s9fAK88f5WVtOWiXOBPL-62" target="s9fAK88f5WVtOWiXOBPL-57">
          <mxGeometry width="50" height="50" relative="1" as="geometry">
            <mxPoint x="259" y="493" as="sourcePoint" />
            <mxPoint x="294" y="464" as="targetPoint" />
          </mxGeometry>
        </mxCell>
        <mxCell id="s9fAK88f5WVtOWiXOBPL-64" value="&lt;font style=&quot;font-size: 10px;&quot;&gt;Meteorite Impact&lt;/font&gt;" style="ellipse;whiteSpace=wrap;html=1;aspect=fixed;fillColor=#FFFFFF;strokeColor=#F19C99;strokeWidth=2;dashed=1;dashPattern=8 8;direction=north;" vertex="1" parent="1">
          <mxGeometry x="290" y="510" width="50" height="50" as="geometry" />
        </mxCell>
        <mxCell id="s9fAK88f5WVtOWiXOBPL-65" value="" style="shape=flexArrow;endArrow=classic;html=1;rounded=0;width=0.3225806451612903;endSize=1.064804469273743;endWidth=2.980717246350694;strokeColor=#F19C99;" edge="1" parent="1" source="s9fAK88f5WVtOWiXOBPL-64" target="s9fAK88f5WVtOWiXOBPL-57">
          <mxGeometry width="50" height="50" relative="1" as="geometry">
            <mxPoint x="295" y="491" as="sourcePoint" />
            <mxPoint x="322" y="472" as="targetPoint" />
          </mxGeometry>
        </mxCell>
        <mxCell id="s9fAK88f5WVtOWiXOBPL-66" value="&lt;span style=&quot;font-size: 14px;&quot;&gt;F&lt;/span&gt;&lt;span style=&quot;font-size: 11.6667px;&quot;&gt;&lt;sub&gt;wiring&lt;/sub&gt;&lt;/span&gt;" style="ellipse;whiteSpace=wrap;html=1;aspect=fixed;fillColor=#A9C4EB;" vertex="1" parent="1">
          <mxGeometry x="520" y="399" width="80" height="80" as="geometry" />
        </mxCell>
        <mxCell id="s9fAK88f5WVtOWiXOBPL-67" value="" style="endArrow=classic;html=1;rounded=0;" edge="1" parent="1" source="s9fAK88f5WVtOWiXOBPL-66" target="s9fAK88f5WVtOWiXOBPL-54">
          <mxGeometry width="50" height="50" relative="1" as="geometry">
            <mxPoint x="430" y="490" as="sourcePoint" />
            <mxPoint x="480" y="440" as="targetPoint" />
          </mxGeometry>
        </mxCell>
        <mxCell id="s9fAK88f5WVtOWiXOBPL-68" value="" style="endArrow=classic;html=1;rounded=0;" edge="1" parent="1" source="s9fAK88f5WVtOWiXOBPL-57" target="s9fAK88f5WVtOWiXOBPL-54">
          <mxGeometry width="50" height="50" relative="1" as="geometry">
            <mxPoint x="410" y="570" as="sourcePoint" />
            <mxPoint x="460" y="520" as="targetPoint" />
          </mxGeometry>
        </mxCell>
        <mxCell id="s9fAK88f5WVtOWiXOBPL-69" value="&lt;font style=&quot;font-size: 14px;&quot;&gt;V&lt;/font&gt;&lt;font size=&quot;1&quot; style=&quot;&quot;&gt;&lt;sub&gt;radiation_disruption&lt;/sub&gt;&lt;/font&gt;" style="ellipse;whiteSpace=wrap;html=1;aspect=fixed;fillColor=#FFFFFF;strokeColor=#080505;strokeWidth=1;" vertex="1" parent="1">
          <mxGeometry x="360" y="605" width="80" height="80" as="geometry" />
        </mxCell>
        <mxCell id="s9fAK88f5WVtOWiXOBPL-70" value="" style="endArrow=classic;html=1;rounded=0;" edge="1" parent="1" source="s9fAK88f5WVtOWiXOBPL-69" target="s9fAK88f5WVtOWiXOBPL-54">
          <mxGeometry width="50" height="50" relative="1" as="geometry">
            <mxPoint x="470" y="630" as="sourcePoint" />
            <mxPoint x="520" y="580" as="targetPoint" />
          </mxGeometry>
        </mxCell>
        <mxCell id="s9fAK88f5WVtOWiXOBPL-71" value="&lt;b&gt;DC to DC Converting Unit&lt;/b&gt;" style="text;html=1;strokeColor=none;fillColor=none;align=center;verticalAlign=middle;whiteSpace=wrap;rounded=0;" vertex="1" parent="1">
          <mxGeometry x="360" y="270" width="100" height="30" as="geometry" />
        </mxCell>
      </root>
    </mxGraphModel>
  </diagram>
</mxfile>
